<svg xmlns="http://www.w3.org/2000/svg" xmlns:xlink="http://www.w3.org/1999/xlink" width="80" zoomAndPan="magnify" viewBox="0 0 60 60" height="80" preserveAspectRatio="xMidYMid meet" version="1.0"><path fill="#eba116" d="M 38.324219 38.359375 C 34.707031 36.546875 33.242188 32.132812 35.050781 28.5 C 36.859375 24.871094 41.257812 23.398438 44.875 25.214844 C 48.492188 27.03125 49.960938 31.445312 48.148438 35.074219 C 46.339844 38.703125 41.945312 40.175781 38.324219 38.359375 Z M 48.777344 17.265625 C 42.199219 13.960938 34.445312 15.589844 29.691406 20.75 L 13.875 12.8125 L 8.660156 10.195312 C 8.046875 9.890625 7.34375 10.054688 7.089844 10.566406 L 4.410156 15.945312 L 0.25 24.292969 C -0.00390625 24.804688 0.285156 25.46875 0.894531 25.777344 L 6.109375 28.390625 C 6.722656 28.699219 7.425781 28.535156 7.679688 28.023438 L 11.285156 20.789062 L 13.972656 22.136719 L 11.742188 26.621094 C 11.546875 27.011719 11.878906 27.578125 12.496094 27.886719 L 17.707031 30.5 C 18.316406 30.808594 18.976562 30.742188 19.171875 30.347656 L 21.402344 25.867188 L 25.816406 28.078125 C 24.148438 35.222656 27.5 42.839844 34.324219 46.265625 C 42.308594 50.269531 52.011719 47.023438 56.003906 39.015625 C 59.996094 31.007812 56.757812 21.269531 48.777344 17.265625 " fill-opacity="1" fill-rule="nonzero"/></svg>